<mxfile host="Electron" agent="Mozilla/5.0 (Windows NT 10.0; Win64; x64) AppleWebKit/537.36 (KHTML, like Gecko) draw.io/25.0.2 Chrome/128.0.6613.186 Electron/32.2.5 Safari/537.36" version="25.0.2">
  <diagram name="ページ1" id="ulFcWuP56dGjDSRcW06h">
    <mxGraphModel dx="1434" dy="854" grid="1" gridSize="10" guides="1" tooltips="1" connect="1" arrows="1" fold="1" page="1" pageScale="1" pageWidth="1169" pageHeight="827" math="0" shadow="0">
      <root>
        <mxCell id="0" />
        <mxCell id="1" parent="0" />
        <mxCell id="nzXv2vHUnCRcOKkLt2oP-5" value="" style="group" vertex="1" connectable="0" parent="1">
          <mxGeometry x="130" y="120" width="970" height="400" as="geometry" />
        </mxCell>
        <mxCell id="nzXv2vHUnCRcOKkLt2oP-4" style="edgeStyle=orthogonalEdgeStyle;rounded=0;orthogonalLoop=1;jettySize=auto;html=1;entryX=0;entryY=0.5;entryDx=0;entryDy=0;endArrow=none;endFill=0;" edge="1" parent="nzXv2vHUnCRcOKkLt2oP-5" source="nzXv2vHUnCRcOKkLt2oP-1" target="nzXv2vHUnCRcOKkLt2oP-3">
          <mxGeometry relative="1" as="geometry" />
        </mxCell>
        <mxCell id="nzXv2vHUnCRcOKkLt2oP-1" value="&lt;font style=&quot;font-size: 16px;&quot;&gt;アプリ利用者&lt;br&gt;（転職活動中のエンジニア）&lt;/font&gt;" style="shape=umlActor;verticalLabelPosition=bottom;verticalAlign=top;html=1;outlineConnect=0;" vertex="1" parent="nzXv2vHUnCRcOKkLt2oP-5">
          <mxGeometry y="260" width="40" height="80" as="geometry" />
        </mxCell>
        <mxCell id="nzXv2vHUnCRcOKkLt2oP-2" value="&lt;b&gt;&lt;font style=&quot;&quot;&gt;&lt;font style=&quot;font-size: 18px;&quot;&gt;目的&lt;/font&gt;&lt;br&gt;&lt;br&gt;&lt;/font&gt;&lt;/b&gt;&lt;div&gt;&lt;font style=&quot;font-size: 15px;&quot;&gt;転職活動中のエンジニア向けのアプリケーションとして、職務経歴書作成を効率化し、プロジェクト実績の整理と管理を簡便にすること。&lt;/font&gt;&lt;b&gt;&lt;br&gt;&lt;/b&gt;&lt;/div&gt;" style="shape=note;whiteSpace=wrap;html=1;backgroundOutline=1;darkOpacity=0.05;align=left;" vertex="1" parent="nzXv2vHUnCRcOKkLt2oP-5">
          <mxGeometry x="530" y="-50" width="440" height="160" as="geometry" />
        </mxCell>
        <mxCell id="nzXv2vHUnCRcOKkLt2oP-10" style="edgeStyle=orthogonalEdgeStyle;rounded=0;orthogonalLoop=1;jettySize=auto;html=1;exitX=1;exitY=0.5;exitDx=0;exitDy=0;entryX=0;entryY=0.5;entryDx=0;entryDy=0;endArrow=none;endFill=0;" edge="1" parent="nzXv2vHUnCRcOKkLt2oP-5" source="nzXv2vHUnCRcOKkLt2oP-3" target="nzXv2vHUnCRcOKkLt2oP-9">
          <mxGeometry relative="1" as="geometry" />
        </mxCell>
        <mxCell id="nzXv2vHUnCRcOKkLt2oP-3" value="&lt;font style=&quot;font-size: 17px;&quot;&gt;&lt;u&gt;KeirekiPro&lt;/u&gt;&lt;br&gt;（職務経歴書作成/管理アプリケーション）&lt;/font&gt;" style="ellipse;whiteSpace=wrap;html=1;fillColor=#dae8fc;strokeColor=#6c8ebf;" vertex="1" parent="nzXv2vHUnCRcOKkLt2oP-5">
          <mxGeometry x="230" y="210" width="340" height="180" as="geometry" />
        </mxCell>
        <mxCell id="nzXv2vHUnCRcOKkLt2oP-9" value="" style="rounded=0;whiteSpace=wrap;html=1;fillColor=none;aspect=fixed;" vertex="1" parent="nzXv2vHUnCRcOKkLt2oP-5">
          <mxGeometry x="734.41" y="200" width="206.19" height="200" as="geometry" />
        </mxCell>
        <mxCell id="nzXv2vHUnCRcOKkLt2oP-7" value="" style="dashed=0;outlineConnect=0;html=1;align=center;labelPosition=center;verticalLabelPosition=bottom;verticalAlign=top;shape=mxgraph.weblogos.google" vertex="1" parent="nzXv2vHUnCRcOKkLt2oP-5">
          <mxGeometry x="804.9" y="222.5" width="65.2" height="69.4" as="geometry" />
        </mxCell>
        <mxCell id="nzXv2vHUnCRcOKkLt2oP-6" value="" style="dashed=0;outlineConnect=0;html=1;align=center;labelPosition=center;verticalLabelPosition=bottom;verticalAlign=top;shape=mxgraph.weblogos.github" vertex="1" parent="nzXv2vHUnCRcOKkLt2oP-5">
          <mxGeometry x="800" y="302.5" width="75" height="75" as="geometry" />
        </mxCell>
      </root>
    </mxGraphModel>
  </diagram>
</mxfile>
